# xmcd
#
# Track frame offsets: 
#        150
#        12060
#        24102
#        36890
#        49820
#        61317
#        72635
#        81920
#        92587
#        103882
#        112935
#        125750
#        145590
#        160459
#
# Disc length: 2351 seconds
#
# Revision: 4
# Processed by: cddbd v1.5.2PL0 Copyright (c) Steve Scherf et al.
# Submitted via: ExactAudioCopyFreeDBPlugin 1.0
#
DISCID=b8092d0e
DTITLE=John Lee Hooker - Urban Blues
DYEAR=1993
DGENRE=Blues
TTITLE0=Cry Before I Go
TTITLE1=Boom Boom
TTITLE2=Backbiters and Syndicators
TTITLE3=Mr. Lucky
TTITLE4=My Own Blues
TTITLE5=I Can't Stand to Leave You
TTITLE6=Think Twice Before You Go
TTITLE7=I'm Standing in Line
TTITLE8=Hot Spring Water, Part I
TTITLE9=Hot Spring Water, Part II
TTITLE10=The Motor City Is Burning
TTITLE11=I Gotta Go to Vietnam
TTITLE12=Messin'  Round with the Blues
TTITLE13=Hold on Baby
EXTD=
EXTT0=
EXTT1=
EXTT2=
EXTT3=
EXTT4=
EXTT5=
EXTT6=
EXTT7=
EXTT8=
EXTT9=
EXTT10=
EXTT11=
EXTT12=
EXTT13=
PLAYORDER=
